<svg id="Capa_1" enable-background="new 0 0 512 512" height="512" viewBox="0 0 512 512" width="512" xmlns="http://www.w3.org/2000/svg" xmlns:xlink="http://www.w3.org/1999/xlink"><linearGradient id="SVGID_1_" gradientUnits="userSpaceOnUse" x1="220.073" x2="264.073" y1="27.928" y2="293.929"><stop offset="0" stop-color="#c6d1ff"/><stop offset=".5834" stop-color="#e6d5f4"/><stop offset=".997" stop-color="#ffd9ec"/></linearGradient><linearGradient id="lg1"><stop offset=".0028" stop-color="#ff7eb8" stop-opacity="0"/><stop offset="1" stop-color="#ff7eb8" stop-opacity=".6"/></linearGradient><linearGradient id="SVGID_2_" gradientUnits="userSpaceOnUse" x1="221.477" x2="221.477" xlink:href="#lg1" y1="172.945" y2="329.773"/><linearGradient id="SVGID_3_" gradientUnits="userSpaceOnUse" x1="378.305" x2="378.305" xlink:href="#lg1" y1="172.945" y2="329.773"/><g><g><path d="m501.873 130.333c-22.357-56.888-91.226-91.003-149.556-68.427-66.582 25.769-44.506 131.673-104.983 153.088-32.669 11.568-80.962-31.644-113.969-38.27-60.821-12.21-115.881 30.705-129.439 90.134-13.832 60.63 8.353 141.61 74.967 158.066 79.35 19.602 120.683-51.729 187.249-72.211 68.311-21.019 144.263 28.622 200.814-31.776 41.78-44.621 57.055-134.272 34.917-190.604z" fill="url(#SVGID_1_)"/></g><g><g><g><g><g><path d="m91.962 342.273c-6.904 0-12.5-5.596-12.5-12.5v-234.742l-38.054-21.264c-6.026-3.368-8.182-10.983-4.814-17.01 3.368-6.026 10.984-8.181 17.01-4.814l44.456 24.842c3.953 2.21 6.402 6.384 6.402 10.912v242.076c0 6.904-5.597 12.5-12.5 12.5z" fill="#ff7eb8"/></g><g><path d="m79.462 176.28v153.493c0 6.904 5.596 12.5 12.5 12.5 6.903 0 12.5-5.596 12.5-12.5v-153.493z" fill="#ffc4df"/></g><g><path d="m79.462 205.998v123.775c0 6.904 5.596 12.5 12.5 12.5 6.903 0 12.5-5.596 12.5-12.5v-123.775z" fill="#ff5ba8"/></g></g><g><g><g><g><g><g><path d="m289.891 329.773h-136.829c-5.523 0-10-4.477-10-10v-136.828c0-5.523 4.477-10 10-10h136.828c5.523 0 10 4.477 10 10v136.828c.001 5.523-4.476 10-9.999 10z" fill="#02ffb3"/><path d="m236.215 207.305h-29.476c-2.762 0-5-2.239-5-5v-29.36h39.476v29.36c0 2.761-2.239 5-5 5z" fill="#dcfdee"/></g></g><g><g><path d="m213.135 282.32h58.583c2.761 0 5-2.239 5-5s-2.239-5-5-5h-58.583c-2.761 0-5 2.239-5 5s2.239 5 5 5z" fill="#00d890"/></g></g><g><g><path d="m213.135 265.125h58.583c2.761 0 5-2.239 5-5s-2.239-5-5-5h-58.583c-2.761 0-5 2.239-5 5s2.239 5 5 5z" fill="#00d890"/></g></g></g></g><g><g><g><g><path d="m446.719 329.773h-136.828c-5.523 0-10-4.477-10-10v-136.828c0-5.523 4.477-10 10-10h136.828c5.523 0 10 4.477 10 10v136.828c0 5.523-4.477 10-10 10z" fill="#ff7eb8"/><path d="m393.043 207.305h-29.477c-2.761 0-5-2.239-5-5v-29.36h39.477v29.36c0 2.761-2.239 5-5 5z" fill="#dcfdee"/></g></g><g><g><path d="m364.013 230.011h58.583c2.761 0 5-2.239 5-5s-2.239-5-5-5h-58.583c-2.761 0-5 2.239-5 5s2.239 5 5 5z" fill="#ffdbed"/></g><g><path d="m394.013 250.332h28.583c2.761 0 5-2.239 5-5s-2.239-5-5-5h-28.583c-2.761 0-5 2.239-5 5 0 2.762 2.239 5 5 5z" fill="#ffdbed"/></g><g><path d="m394.013 267.654h28.583c2.761 0 5-2.239 5-5s-2.239-5-5-5h-28.583c-2.761 0-5 2.239-5 5s2.239 5 5 5z" fill="#ffdbed"/></g></g></g></g><g><g><g><g><path d="m368.305 172.945h-136.828c-5.523 0-10-4.477-10-10v-71.829c0-5.523 4.477-10 10-10h136.828c5.523 0 10 4.477 10 10v71.828c0 5.523-4.477 10.001-10 10.001z" fill="#8399fe"/><path d="m280.152 81.116h39.477v91.828h-39.477z" fill="#d2deff"/></g></g></g></g><path d="m271.718 310.616h-32.134c-2.761 0-5-2.239-5-5v-7.154c0-2.762 2.239-5 5-5h32.134c2.761 0 5 2.238 5 5v7.154c0 2.762-2.239 5-5 5z" fill="#ff7eb8"/></g><g><path d="m476.997 339.775v37.36c0 11.04-8.96 20-20 20h-352.13c-11.05 0-20-8.96-20-20v-37.36c0-5.53 4.47-10 10-10h372.13c5.52 0 10 4.47 10 10z" fill="#b7c5ff"/><path d="m117.867 349.475c0 13.9-11.26 25.16-25.16 25.16-2.74 0-5.37-.44-7.84-1.25v-33.61c0-5.53 4.47-10 10-10h13.49c5.8 4.6 9.51 11.72 9.51 19.7z" fill="#9fb0fe"/><g><path d="m231.066 397.132h-42.512v-24.915h18.477c6.19 0 11.899 3.339 14.934 8.734z" fill="#8399fe"/></g><g><path d="m330.582 397.132h42.512v-24.915h-18.477c-6.19 0-11.899 3.339-14.934 8.734z" fill="#8399fe"/></g><path d="m476.997 339.775v15.71h-392.13v-15.71c0-5.53 4.47-10 10-10h372.13c5.52 0 10 4.47 10 10z" fill="#d2deff"/><path d="m117.867 349.475c0 2.07-.25 4.09-.73 6.01h-32.27v-15.71c0-5.53 4.47-10 10-10h13.49c5.8 4.6 9.51 11.72 9.51 19.7z" fill="#b7c5ff"/><g><g><circle cx="159.93" cy="395.755" fill="#6583fe" r="37.058"/><ellipse cx="159.93" cy="395.754" fill="#d2deff" rx="16.782" ry="16.782" transform="matrix(.894 -.447 .447 .894 -160.118 113.321)"/></g><g><ellipse cx="401.927" cy="395.755" fill="#6583fe" rx="37.058" ry="37.058" transform="matrix(.998 -.067 .067 .998 -25.424 27.6)"/><ellipse cx="401.927" cy="395.754" fill="#d2deff" rx="16.782" ry="16.782" transform="matrix(.915 -.403 .403 .915 -125.481 195.735)"/></g></g></g></g><circle cx="92.706" cy="332.077" fill="#8399fe" r="25.165"/><circle cx="92.706" cy="332.077" fill="#6583fe" r="10.727"/></g></g><path d="m165.683 136.78c-1.28 0-2.559-.488-3.536-1.464l-5.964-5.964-5.964 5.964c-1.953 1.952-5.118 1.952-7.071 0-1.953-1.953-1.953-5.119 0-7.071l9.5-9.5c1.953-1.952 5.118-1.952 7.071 0l9.5 9.5c1.953 1.953 1.953 5.119 0 7.071-.977.976-2.257 1.464-3.536 1.464z" fill="#00eca2"/><path d="m186.212 99.046c-1.28 0-2.559-.488-3.536-1.464l-5.964-5.964-5.964 5.964c-1.953 1.952-5.118 1.952-7.071 0-1.953-1.953-1.953-5.119 0-7.071l9.5-9.5c1.953-1.952 5.118-1.952 7.071 0l9.5 9.5c1.953 1.953 1.953 5.119 0 7.071-.977.976-2.256 1.464-3.536 1.464z" fill="#6583fe"/><path d="m344.522 461.647c-3.713 0-7.427-1.414-10.253-4.24-5.653-5.654-5.653-14.852 0-20.506 5.653-5.652 14.853-5.653 20.506 0 5.653 5.654 5.653 14.853 0 20.506-2.827 2.826-6.54 4.24-10.253 4.24zm-.001-18.992c-1.152 0-2.305.438-3.182 1.316-1.755 1.754-1.755 4.609 0 6.364 1.754 1.755 4.61 1.754 6.364 0 1.755-1.754 1.755-4.609 0-6.364-.876-.877-2.029-1.316-3.182-1.316z" fill="#00eca2"/><g fill="#ff7eb8"><path d="m429.367 136.78c-3.873 0-7.514-1.508-10.253-4.248-2.738-2.738-4.247-6.379-4.247-10.252s1.508-7.514 4.247-10.253c5.653-5.654 14.853-5.653 20.506 0 2.739 2.739 4.247 6.38 4.247 10.253s-1.508 7.515-4.247 10.253c-2.739 2.739-6.38 4.247-10.253 4.247zm0-18.997c-2.359-.074-4.573 2.085-4.5 4.498 0 1.202.468 2.332 1.318 3.182.851.851 1.98 1.318 3.182 1.318 2.419.05 4.55-2.081 4.5-4.5.073-2.413-2.141-4.572-4.5-4.498z"/><path d="m48.221 421.129c-3.713 0-7.426-1.414-10.253-4.24-5.653-5.654-5.653-14.853 0-20.506 5.653-5.654 14.853-5.653 20.506 0 5.653 5.654 5.653 14.853 0 20.506-2.826 2.826-6.539 4.24-10.253 4.24zm.001-18.992c-1.153 0-2.305.439-3.182 1.316-1.755 1.754-1.755 4.609 0 6.364 1.753 1.754 4.609 1.755 6.364 0 1.755-1.754 1.755-4.609 0-6.364-.878-.877-2.03-1.316-3.182-1.316z"/></g></g><path d="m289.891 329.773h-136.829c-5.523 0-10-4.477-10-10v-136.828c0-5.523 4.477-10 10-10h136.828c5.523 0 10 4.477 10 10v136.828c.001 5.523-4.476 10-9.999 10z" fill="url(#SVGID_2_)"/><path d="m446.719 329.773h-136.828c-5.523 0-10-4.477-10-10v-136.828c0-5.523 4.477-10 10-10h136.828c5.523 0 10 4.477 10 10v136.828c0 5.523-4.477 10-10 10z" fill="url(#SVGID_3_)"/></g></svg>